<svg width="30" height="31" viewBox="0 0 30 31" fill="none" xmlns="http://www.w3.org/2000/svg">
<g clip-path="url(#clip0_6_105)">
<path d="M28.7236 0.534271H23.2443C22.6701 0.534271 22.2242 0.919104 22.0348 1.4261L16.9404 17.5402H6.049L2.99478 8.56077H14.4603C15.1628 8.56077 15.737 7.98658 15.737 7.28411C15.737 6.58164 15.1628 6.00744 14.4603 6.00744H1.27219C0.14213 6.06242 -0.144967 7.10696 0.0627199 7.60175L3.94769 19.1895C4.13706 19.6965 4.65017 20.0202 5.15717 20.0202H17.8322C18.4064 20.0202 18.9134 19.7026 19.0417 19.1895L24.1361 3.07539H28.7236C29.426 3.07539 30.0002 2.50119 30.0002 1.79872C30.0002 1.09625 29.4199 0.534271 28.7236 0.534271Z" fill="white"/>
<path d="M6.30535 22.317C4.07577 22.317 2.23102 24.1618 2.23102 26.3914C2.23102 28.6209 4.07577 30.4657 6.30535 30.4657C8.53494 30.4657 10.3797 28.6209 10.3797 26.3914C10.3797 24.1618 8.53494 22.317 6.30535 22.317ZM7.83247 26.4524C7.83247 27.3443 7.12999 28.0467 6.30535 28.0467C5.4746 28.0467 4.77824 27.3443 4.77824 26.4524C4.77824 25.5606 5.48071 24.8581 6.30535 24.8581C7.19719 24.8642 7.89966 25.5606 7.83247 26.4524Z" fill="white"/>
<path d="M16.2377 22.317C14.0081 22.317 12.1633 24.1618 12.1633 26.3914C12.1633 28.6209 14.0081 30.4657 16.2377 30.4657C18.5283 30.4657 20.312 28.6209 20.312 26.3914C20.3181 24.1618 18.4673 22.317 16.2377 22.317ZM17.7709 26.4524C17.7709 27.3443 17.0684 28.0467 16.2438 28.0467C15.4191 28.0467 14.7167 27.3443 14.7167 26.4524C14.7167 25.5606 15.4191 24.8581 16.2438 24.8581C17.1295 24.8642 17.832 25.5606 17.7709 26.4524Z" fill="white"/>
</g>
<defs>
<clipPath id="clip0_6_105">
<rect width="30" height="30" fill="white" transform="translate(0 0.5)"/>
</clipPath>
</defs>
</svg>
